<?xml version="1.0" encoding="UTF-8" standalone="no"?>
<!DOCTYPE svg PUBLIC "-//W3C//DTD SVG 1.1//EN"
 "http://www.w3.org/Graphics/SVG/1.1/DTD/svg11.dtd">
<!-- Generated by graphviz version 2.43.0 (0)
 -->
<!-- Title: %3 Pages: 1 -->
<svg width="1348pt" height="238pt"
 viewBox="0.00 0.00 1347.50 237.74" xmlns="http://www.w3.org/2000/svg" xmlns:xlink="http://www.w3.org/1999/xlink">
<g id="graph0" class="graph" transform="scale(1 1) rotate(0) translate(36 201.74)">
<title>%3</title>
<polygon fill="dimgray" stroke="transparent" points="-36,36 -36,-201.74 1311.5,-201.74 1311.5,36 -36,36"/>
<text text-anchor="middle" x="637.75" y="-150.54" font-family="Helvetica,sans-Serif" font-size="14.00">Sweep&#39;s Plan &amp; Progress</text>
<!-- start -->
<g id="node1" class="node">
<title>start</title>
</g>
<!-- 150e9eef&#45;2b80&#45;48fb&#45;8311&#45;705d8f268485 -->
<g id="node3" class="node">
<title>150e9eef&#45;2b80&#45;48fb&#45;8311&#45;705d8f268485</title>
<ellipse fill="#0ee832" stroke="black" cx="218.5" cy="-99.87" rx="82.05" ry="26.74"/>
<text text-anchor="middle" x="218.5" y="-103.67" font-family="Helvetica,sans-Serif" font-size="14.00">✓ Create</text>
<text text-anchor="middle" x="218.5" y="-88.67" font-family="Helvetica,sans-Serif" font-size="14.00">src/index.html</text>
</g>
<!-- start&#45;&gt;150e9eef&#45;2b80&#45;48fb&#45;8311&#45;705d8f268485 -->
<g id="edge8" class="edge">
<title>start&#45;&gt;150e9eef&#45;2b80&#45;48fb&#45;8311&#45;705d8f268485</title>
<path fill="none" stroke="black" d="M85.36,-99.87C89.23,-99.87 105.78,-99.87 125.96,-99.87"/>
<polygon fill="black" stroke="black" points="126.13,-103.37 136.13,-99.87 126.13,-96.37 126.13,-103.37"/>
<text text-anchor="middle" x="110.74" y="-106.67" font-family="Helvetica,sans-Serif" font-size="14.00">Start</text>
</g>
<!-- end -->
<g id="node2" class="node">
<title>end</title>
</g>
<!-- 79d15f7e&#45;4bd5&#45;40e1&#45;9cb6&#45;b43892bcaa31 -->
<g id="node4" class="node">
<title>79d15f7e&#45;4bd5&#45;40e1&#45;9cb6&#45;b43892bcaa31</title>
<ellipse fill="white" stroke="black" cx="489.5" cy="-99.87" rx="90.52" ry="26.74"/>
<text text-anchor="middle" x="489.5" y="-103.67" font-family="Helvetica,sans-Serif" font-size="14.00">▶ Create</text>
<text text-anchor="middle" x="489.5" y="-88.67" font-family="Helvetica,sans-Serif" font-size="14.00">src/css/style.css</text>
</g>
<!-- 150e9eef&#45;2b80&#45;48fb&#45;8311&#45;705d8f268485&#45;&gt;79d15f7e&#45;4bd5&#45;40e1&#45;9cb6&#45;b43892bcaa31 -->
<g id="edge2" class="edge">
<title>150e9eef&#45;2b80&#45;48fb&#45;8311&#45;705d8f268485&#45;&gt;79d15f7e&#45;4bd5&#45;40e1&#45;9cb6&#45;b43892bcaa31</title>
<path fill="none" stroke="black" d="M300.54,-99.87C329.81,-99.87 359.09,-99.87 388.36,-99.87"/>
<polygon fill="black" stroke="black" points="388.71,-103.37 398.71,-99.87 388.71,-96.37 388.71,-103.37"/>
</g>
<!-- 2b343f64&#45;9810&#45;4b1a&#45;813c&#45;0f92056f319a -->
<g id="node7" class="node">
<title>2b343f64&#45;9810&#45;4b1a&#45;813c&#45;0f92056f319a</title>
<polygon fill="yellow" stroke="black" points="311,-36 0,-36 0,0 311,0 311,-36"/>
<text text-anchor="middle" x="155.5" y="-14.3" font-family="Helvetica,sans-Serif" font-size="14.00">⋯ Run GitHub Actions for `src/index.html`</text>
</g>
<!-- 150e9eef&#45;2b80&#45;48fb&#45;8311&#45;705d8f268485&#45;&gt;2b343f64&#45;9810&#45;4b1a&#45;813c&#45;0f92056f319a -->
<g id="edge1" class="edge">
<title>150e9eef&#45;2b80&#45;48fb&#45;8311&#45;705d8f268485&#45;&gt;2b343f64&#45;9810&#45;4b1a&#45;813c&#45;0f92056f319a</title>
<path fill="none" stroke="black" stroke-dasharray="5,2" d="M198.57,-73.6C191.09,-64.13 182.61,-53.37 175.17,-43.93"/>
<polygon fill="black" stroke="black" points="177.88,-41.72 168.94,-36.04 172.38,-46.06 177.88,-41.72"/>
</g>
<!-- e419195a&#45;0f34&#45;4fb9&#45;82fd&#45;e355f751ab9d -->
<g id="node5" class="node">
<title>e419195a&#45;0f34&#45;4fb9&#45;82fd&#45;e355f751ab9d</title>
<ellipse fill="white" stroke="black" cx="817.5" cy="-99.87" rx="75.82" ry="26.74"/>
<text text-anchor="middle" x="817.5" y="-103.67" font-family="Helvetica,sans-Serif" font-size="14.00">▶ Create</text>
<text text-anchor="middle" x="817.5" y="-88.67" font-family="Helvetica,sans-Serif" font-size="14.00">src/js/main.js</text>
</g>
<!-- 79d15f7e&#45;4bd5&#45;40e1&#45;9cb6&#45;b43892bcaa31&#45;&gt;e419195a&#45;0f34&#45;4fb9&#45;82fd&#45;e355f751ab9d -->
<g id="edge4" class="edge">
<title>79d15f7e&#45;4bd5&#45;40e1&#45;9cb6&#45;b43892bcaa31&#45;&gt;e419195a&#45;0f34&#45;4fb9&#45;82fd&#45;e355f751ab9d</title>
<path fill="none" stroke="black" d="M580.15,-99.87C630.56,-99.87 680.98,-99.87 731.39,-99.87"/>
<polygon fill="black" stroke="black" points="731.47,-103.37 741.47,-99.87 731.47,-96.37 731.47,-103.37"/>
</g>
<!-- 553a028b&#45;e2ec&#45;49b0&#45;9744&#45;ee2a3bc212d1 -->
<g id="node8" class="node">
<title>553a028b&#45;e2ec&#45;49b0&#45;9744&#45;ee2a3bc212d1</title>
<polygon fill="white" stroke="black" points="649.5,-36 329.5,-36 329.5,0 649.5,0 649.5,-36"/>
<text text-anchor="middle" x="489.5" y="-14.3" font-family="Helvetica,sans-Serif" font-size="14.00">▶ Run GitHub Actions for `src/css/style.css`</text>
</g>
<!-- 79d15f7e&#45;4bd5&#45;40e1&#45;9cb6&#45;b43892bcaa31&#45;&gt;553a028b&#45;e2ec&#45;49b0&#45;9744&#45;ee2a3bc212d1 -->
<g id="edge3" class="edge">
<title>79d15f7e&#45;4bd5&#45;40e1&#45;9cb6&#45;b43892bcaa31&#45;&gt;553a028b&#45;e2ec&#45;49b0&#45;9744&#45;ee2a3bc212d1</title>
<path fill="none" stroke="black" stroke-dasharray="5,2" d="M489.5,-72.72C489.5,-64.27 489.5,-54.89 489.5,-46.36"/>
<polygon fill="black" stroke="black" points="493,-46.15 489.5,-36.15 486,-46.15 493,-46.15"/>
</g>
<!-- b7115cfd&#45;ffaa&#45;4d9c&#45;82ef&#45;386e5401268e -->
<g id="node6" class="node">
<title>b7115cfd&#45;ffaa&#45;4d9c&#45;82ef&#45;386e5401268e</title>
<ellipse fill="white" stroke="black" cx="1064.5" cy="-99.87" rx="69.09" ry="26.74"/>
<text text-anchor="middle" x="1064.5" y="-103.67" font-family="Helvetica,sans-Serif" font-size="14.00">▶ Modify</text>
<text text-anchor="middle" x="1064.5" y="-88.67" font-family="Helvetica,sans-Serif" font-size="14.00">ReadMe.md</text>
</g>
<!-- e419195a&#45;0f34&#45;4fb9&#45;82fd&#45;e355f751ab9d&#45;&gt;b7115cfd&#45;ffaa&#45;4d9c&#45;82ef&#45;386e5401268e -->
<g id="edge6" class="edge">
<title>e419195a&#45;0f34&#45;4fb9&#45;82fd&#45;e355f751ab9d&#45;&gt;b7115cfd&#45;ffaa&#45;4d9c&#45;82ef&#45;386e5401268e</title>
<path fill="none" stroke="black" d="M893.24,-99.87C923.69,-99.87 954.15,-99.87 984.6,-99.87"/>
<polygon fill="black" stroke="black" points="984.93,-103.37 994.93,-99.87 984.93,-96.37 984.93,-103.37"/>
</g>
<!-- f86ae67c&#45;94a1&#45;4105&#45;a4e5&#45;c9b889de3130 -->
<g id="node9" class="node">
<title>f86ae67c&#45;94a1&#45;4105&#45;a4e5&#45;c9b889de3130</title>
<polygon fill="white" stroke="black" points="967,-36 668,-36 668,0 967,0 967,-36"/>
<text text-anchor="middle" x="817.5" y="-14.3" font-family="Helvetica,sans-Serif" font-size="14.00">▶ Run GitHub Actions for `src/js/main.js`</text>
</g>
<!-- e419195a&#45;0f34&#45;4fb9&#45;82fd&#45;e355f751ab9d&#45;&gt;f86ae67c&#45;94a1&#45;4105&#45;a4e5&#45;c9b889de3130 -->
<g id="edge5" class="edge">
<title>e419195a&#45;0f34&#45;4fb9&#45;82fd&#45;e355f751ab9d&#45;&gt;f86ae67c&#45;94a1&#45;4105&#45;a4e5&#45;c9b889de3130</title>
<path fill="none" stroke="black" stroke-dasharray="5,2" d="M817.5,-72.72C817.5,-64.27 817.5,-54.89 817.5,-46.36"/>
<polygon fill="black" stroke="black" points="821,-46.15 817.5,-36.15 814,-46.15 821,-46.15"/>
</g>
<!-- b7115cfd&#45;ffaa&#45;4d9c&#45;82ef&#45;386e5401268e&#45;&gt;end -->
<g id="edge9" class="edge">
<title>b7115cfd&#45;ffaa&#45;4d9c&#45;82ef&#45;386e5401268e&#45;&gt;end</title>
<path fill="none" stroke="black" d="M1133.95,-99.87C1152.21,-99.87 1169.81,-99.87 1180.64,-99.87"/>
<polygon fill="black" stroke="black" points="1180.79,-103.37 1190.79,-99.87 1180.79,-96.37 1180.79,-103.37"/>
<text text-anchor="middle" x="1162.4" y="-106.67" font-family="Helvetica,sans-Serif" font-size="14.00">Finish</text>
</g>
<!-- e70c29ec&#45;99a9&#45;4574&#45;8230&#45;6f413d8cc1c3 -->
<g id="node10" class="node">
<title>e70c29ec&#45;99a9&#45;4574&#45;8230&#45;6f413d8cc1c3</title>
<polygon fill="white" stroke="black" points="1275.5,-36 985.5,-36 985.5,0 1275.5,0 1275.5,-36"/>
<text text-anchor="middle" x="1130.5" y="-14.3" font-family="Helvetica,sans-Serif" font-size="14.00">▶ Run GitHub Actions for `ReadMe.md`</text>
</g>
<!-- b7115cfd&#45;ffaa&#45;4d9c&#45;82ef&#45;386e5401268e&#45;&gt;e70c29ec&#45;99a9&#45;4574&#45;8230&#45;6f413d8cc1c3 -->
<g id="edge7" class="edge">
<title>b7115cfd&#45;ffaa&#45;4d9c&#45;82ef&#45;386e5401268e&#45;&gt;e70c29ec&#45;99a9&#45;4574&#45;8230&#45;6f413d8cc1c3</title>
<path fill="none" stroke="black" stroke-dasharray="5,2" d="M1085.02,-74.04C1092.86,-64.54 1101.81,-53.72 1109.68,-44.19"/>
<polygon fill="black" stroke="black" points="1112.6,-46.16 1116.27,-36.22 1107.2,-41.7 1112.6,-46.16"/>
</g>
</g>
</svg>
