<?xml version="1.0" encoding="UTF-8" standalone="no"?>
<!DOCTYPE svg PUBLIC "-//W3C//DTD SVG 1.1//EN"
 "http://www.w3.org/Graphics/SVG/1.1/DTD/svg11.dtd">
<!-- Generated by graphviz version 2.43.0 (0)
 -->
<!-- Title: %3 Pages: 1 -->
<svg width="1347pt" height="238pt"
 viewBox="0.00 0.00 1347.00 237.74" xmlns="http://www.w3.org/2000/svg" xmlns:xlink="http://www.w3.org/1999/xlink">
<g id="graph0" class="graph" transform="scale(1 1) rotate(0) translate(36 201.74)">
<title>%3</title>
<polygon fill="dimgray" stroke="transparent" points="-36,36 -36,-201.74 1311,-201.74 1311,36 -36,36"/>
<text text-anchor="middle" x="637.5" y="-150.54" font-family="Helvetica,sans-Serif" font-size="14.00">Sweep&#39;s Plan &amp; Progress</text>
<!-- start -->
<g id="node1" class="node">
<title>start</title>
</g>
<!-- 150e9eef&#45;2b80&#45;48fb&#45;8311&#45;705d8f268485 -->
<g id="node3" class="node">
<title>150e9eef&#45;2b80&#45;48fb&#45;8311&#45;705d8f268485</title>
<ellipse fill="#0ee832" stroke="black" cx="217" cy="-99.87" rx="82.05" ry="26.74"/>
<text text-anchor="middle" x="217" y="-103.67" font-family="Helvetica,sans-Serif" font-size="14.00">✓ Create</text>
<text text-anchor="middle" x="217" y="-88.67" font-family="Helvetica,sans-Serif" font-size="14.00">src/index.html</text>
</g>
<!-- start&#45;&gt;150e9eef&#45;2b80&#45;48fb&#45;8311&#45;705d8f268485 -->
<g id="edge8" class="edge">
<title>start&#45;&gt;150e9eef&#45;2b80&#45;48fb&#45;8311&#45;705d8f268485</title>
<path fill="none" stroke="black" d="M83.86,-99.87C87.73,-99.87 104.28,-99.87 124.46,-99.87"/>
<polygon fill="black" stroke="black" points="124.63,-103.37 134.63,-99.87 124.63,-96.37 124.63,-103.37"/>
<text text-anchor="middle" x="109.24" y="-106.67" font-family="Helvetica,sans-Serif" font-size="14.00">Start</text>
</g>
<!-- end -->
<g id="node2" class="node">
<title>end</title>
</g>
<!-- 79d15f7e&#45;4bd5&#45;40e1&#45;9cb6&#45;b43892bcaa31 -->
<g id="node4" class="node">
<title>79d15f7e&#45;4bd5&#45;40e1&#45;9cb6&#45;b43892bcaa31</title>
<ellipse fill="#0ee832" stroke="black" cx="488" cy="-99.87" rx="90.52" ry="26.74"/>
<text text-anchor="middle" x="488" y="-103.67" font-family="Helvetica,sans-Serif" font-size="14.00">✓ Create</text>
<text text-anchor="middle" x="488" y="-88.67" font-family="Helvetica,sans-Serif" font-size="14.00">src/css/style.css</text>
</g>
<!-- 150e9eef&#45;2b80&#45;48fb&#45;8311&#45;705d8f268485&#45;&gt;79d15f7e&#45;4bd5&#45;40e1&#45;9cb6&#45;b43892bcaa31 -->
<g id="edge2" class="edge">
<title>150e9eef&#45;2b80&#45;48fb&#45;8311&#45;705d8f268485&#45;&gt;79d15f7e&#45;4bd5&#45;40e1&#45;9cb6&#45;b43892bcaa31</title>
<path fill="none" stroke="black" d="M299.04,-99.87C328.31,-99.87 357.59,-99.87 386.86,-99.87"/>
<polygon fill="black" stroke="black" points="387.21,-103.37 397.21,-99.87 387.21,-96.37 387.21,-103.37"/>
</g>
<!-- 2b343f64&#45;9810&#45;4b1a&#45;813c&#45;0f92056f319a -->
<g id="node7" class="node">
<title>2b343f64&#45;9810&#45;4b1a&#45;813c&#45;0f92056f319a</title>
<polygon fill="#0ee832" stroke="black" points="308,-36 0,-36 0,0 308,0 308,-36"/>
<text text-anchor="middle" x="154" y="-14.3" font-family="Helvetica,sans-Serif" font-size="14.00">✓ Run GitHub Actions for `src/index.html`</text>
</g>
<!-- 150e9eef&#45;2b80&#45;48fb&#45;8311&#45;705d8f268485&#45;&gt;2b343f64&#45;9810&#45;4b1a&#45;813c&#45;0f92056f319a -->
<g id="edge1" class="edge">
<title>150e9eef&#45;2b80&#45;48fb&#45;8311&#45;705d8f268485&#45;&gt;2b343f64&#45;9810&#45;4b1a&#45;813c&#45;0f92056f319a</title>
<path fill="none" stroke="black" stroke-dasharray="5,2" d="M197.07,-73.6C189.59,-64.13 181.11,-53.37 173.67,-43.93"/>
<polygon fill="black" stroke="black" points="176.38,-41.72 167.44,-36.04 170.88,-46.06 176.38,-41.72"/>
</g>
<!-- e419195a&#45;0f34&#45;4fb9&#45;82fd&#45;e355f751ab9d -->
<g id="node5" class="node">
<title>e419195a&#45;0f34&#45;4fb9&#45;82fd&#45;e355f751ab9d</title>
<ellipse fill="white" stroke="black" cx="817" cy="-99.87" rx="75.82" ry="26.74"/>
<text text-anchor="middle" x="817" y="-103.67" font-family="Helvetica,sans-Serif" font-size="14.00">▶ Create</text>
<text text-anchor="middle" x="817" y="-88.67" font-family="Helvetica,sans-Serif" font-size="14.00">src/js/main.js</text>
</g>
<!-- 79d15f7e&#45;4bd5&#45;40e1&#45;9cb6&#45;b43892bcaa31&#45;&gt;e419195a&#45;0f34&#45;4fb9&#45;82fd&#45;e355f751ab9d -->
<g id="edge4" class="edge">
<title>79d15f7e&#45;4bd5&#45;40e1&#45;9cb6&#45;b43892bcaa31&#45;&gt;e419195a&#45;0f34&#45;4fb9&#45;82fd&#45;e355f751ab9d</title>
<path fill="none" stroke="black" d="M578.6,-99.87C629.38,-99.87 680.17,-99.87 730.95,-99.87"/>
<polygon fill="black" stroke="black" points="731.1,-103.37 741.1,-99.87 731.1,-96.37 731.1,-103.37"/>
</g>
<!-- 553a028b&#45;e2ec&#45;49b0&#45;9744&#45;ee2a3bc212d1 -->
<g id="node8" class="node">
<title>553a028b&#45;e2ec&#45;49b0&#45;9744&#45;ee2a3bc212d1</title>
<polygon fill="yellow" stroke="black" points="649.5,-36 326.5,-36 326.5,0 649.5,0 649.5,-36"/>
<text text-anchor="middle" x="488" y="-14.3" font-family="Helvetica,sans-Serif" font-size="14.00">⋯ Run GitHub Actions for `src/css/style.css`</text>
</g>
<!-- 79d15f7e&#45;4bd5&#45;40e1&#45;9cb6&#45;b43892bcaa31&#45;&gt;553a028b&#45;e2ec&#45;49b0&#45;9744&#45;ee2a3bc212d1 -->
<g id="edge3" class="edge">
<title>79d15f7e&#45;4bd5&#45;40e1&#45;9cb6&#45;b43892bcaa31&#45;&gt;553a028b&#45;e2ec&#45;49b0&#45;9744&#45;ee2a3bc212d1</title>
<path fill="none" stroke="black" stroke-dasharray="5,2" d="M488,-72.72C488,-64.27 488,-54.89 488,-46.36"/>
<polygon fill="black" stroke="black" points="491.5,-46.15 488,-36.15 484.5,-46.15 491.5,-46.15"/>
</g>
<!-- b7115cfd&#45;ffaa&#45;4d9c&#45;82ef&#45;386e5401268e -->
<g id="node6" class="node">
<title>b7115cfd&#45;ffaa&#45;4d9c&#45;82ef&#45;386e5401268e</title>
<ellipse fill="white" stroke="black" cx="1064" cy="-99.87" rx="69.09" ry="26.74"/>
<text text-anchor="middle" x="1064" y="-103.67" font-family="Helvetica,sans-Serif" font-size="14.00">▶ Modify</text>
<text text-anchor="middle" x="1064" y="-88.67" font-family="Helvetica,sans-Serif" font-size="14.00">ReadMe.md</text>
</g>
<!-- e419195a&#45;0f34&#45;4fb9&#45;82fd&#45;e355f751ab9d&#45;&gt;b7115cfd&#45;ffaa&#45;4d9c&#45;82ef&#45;386e5401268e -->
<g id="edge6" class="edge">
<title>e419195a&#45;0f34&#45;4fb9&#45;82fd&#45;e355f751ab9d&#45;&gt;b7115cfd&#45;ffaa&#45;4d9c&#45;82ef&#45;386e5401268e</title>
<path fill="none" stroke="black" d="M892.74,-99.87C923.19,-99.87 953.65,-99.87 984.1,-99.87"/>
<polygon fill="black" stroke="black" points="984.43,-103.37 994.43,-99.87 984.43,-96.37 984.43,-103.37"/>
</g>
<!-- f86ae67c&#45;94a1&#45;4105&#45;a4e5&#45;c9b889de3130 -->
<g id="node9" class="node">
<title>f86ae67c&#45;94a1&#45;4105&#45;a4e5&#45;c9b889de3130</title>
<polygon fill="white" stroke="black" points="966.5,-36 667.5,-36 667.5,0 966.5,0 966.5,-36"/>
<text text-anchor="middle" x="817" y="-14.3" font-family="Helvetica,sans-Serif" font-size="14.00">▶ Run GitHub Actions for `src/js/main.js`</text>
</g>
<!-- e419195a&#45;0f34&#45;4fb9&#45;82fd&#45;e355f751ab9d&#45;&gt;f86ae67c&#45;94a1&#45;4105&#45;a4e5&#45;c9b889de3130 -->
<g id="edge5" class="edge">
<title>e419195a&#45;0f34&#45;4fb9&#45;82fd&#45;e355f751ab9d&#45;&gt;f86ae67c&#45;94a1&#45;4105&#45;a4e5&#45;c9b889de3130</title>
<path fill="none" stroke="black" stroke-dasharray="5,2" d="M817,-72.72C817,-64.27 817,-54.89 817,-46.36"/>
<polygon fill="black" stroke="black" points="820.5,-46.15 817,-36.15 813.5,-46.15 820.5,-46.15"/>
</g>
<!-- b7115cfd&#45;ffaa&#45;4d9c&#45;82ef&#45;386e5401268e&#45;&gt;end -->
<g id="edge9" class="edge">
<title>b7115cfd&#45;ffaa&#45;4d9c&#45;82ef&#45;386e5401268e&#45;&gt;end</title>
<path fill="none" stroke="black" d="M1133.45,-99.87C1151.71,-99.87 1169.31,-99.87 1180.14,-99.87"/>
<polygon fill="black" stroke="black" points="1180.29,-103.37 1190.29,-99.87 1180.29,-96.37 1180.29,-103.37"/>
<text text-anchor="middle" x="1161.9" y="-106.67" font-family="Helvetica,sans-Serif" font-size="14.00">Finish</text>
</g>
<!-- e70c29ec&#45;99a9&#45;4574&#45;8230&#45;6f413d8cc1c3 -->
<g id="node10" class="node">
<title>e70c29ec&#45;99a9&#45;4574&#45;8230&#45;6f413d8cc1c3</title>
<polygon fill="white" stroke="black" points="1275,-36 985,-36 985,0 1275,0 1275,-36"/>
<text text-anchor="middle" x="1130" y="-14.3" font-family="Helvetica,sans-Serif" font-size="14.00">▶ Run GitHub Actions for `ReadMe.md`</text>
</g>
<!-- b7115cfd&#45;ffaa&#45;4d9c&#45;82ef&#45;386e5401268e&#45;&gt;e70c29ec&#45;99a9&#45;4574&#45;8230&#45;6f413d8cc1c3 -->
<g id="edge7" class="edge">
<title>b7115cfd&#45;ffaa&#45;4d9c&#45;82ef&#45;386e5401268e&#45;&gt;e70c29ec&#45;99a9&#45;4574&#45;8230&#45;6f413d8cc1c3</title>
<path fill="none" stroke="black" stroke-dasharray="5,2" d="M1084.52,-74.04C1092.36,-64.54 1101.31,-53.72 1109.18,-44.19"/>
<polygon fill="black" stroke="black" points="1112.1,-46.16 1115.77,-36.22 1106.7,-41.7 1112.1,-46.16"/>
</g>
</g>
</svg>
