<?xml version="1.0" encoding="UTF-8" standalone="no"?>
<!DOCTYPE svg PUBLIC "-//W3C//DTD SVG 1.1//EN"
 "http://www.w3.org/Graphics/SVG/1.1/DTD/svg11.dtd">
<!-- Generated by graphviz version 2.43.0 (0)
 -->
<!-- Title: %3 Pages: 1 -->
<svg width="1253pt" height="238pt"
 viewBox="0.00 0.00 1253.00 237.74" xmlns="http://www.w3.org/2000/svg" xmlns:xlink="http://www.w3.org/1999/xlink">
<g id="graph0" class="graph" transform="scale(1 1) rotate(0) translate(36 201.74)">
<title>%3</title>
<polygon fill="dimgray" stroke="transparent" points="-36,36 -36,-201.74 1217,-201.74 1217,36 -36,36"/>
<text text-anchor="middle" x="590.5" y="-150.54" font-family="Helvetica,sans-Serif" font-size="14.00">Sweep&#39;s Plan &amp; Progress</text>
<!-- start -->
<g id="node1" class="node">
<title>start</title>
</g>
<!-- 0899ae69&#45;d63b&#45;492c&#45;a14e&#45;3b2e8c9bec07 -->
<g id="node3" class="node">
<title>0899ae69&#45;d63b&#45;492c&#45;a14e&#45;3b2e8c9bec07</title>
<ellipse fill="#0ee832" stroke="black" cx="213" cy="-99.87" rx="64.19" ry="26.74"/>
<text text-anchor="middle" x="213" y="-103.67" font-family="Helvetica,sans-Serif" font-size="14.00">✓ Create</text>
<text text-anchor="middle" x="213" y="-88.67" font-family="Helvetica,sans-Serif" font-size="14.00">index.html</text>
</g>
<!-- start&#45;&gt;0899ae69&#45;d63b&#45;492c&#45;a14e&#45;3b2e8c9bec07 -->
<g id="edge8" class="edge">
<title>start&#45;&gt;0899ae69&#45;d63b&#45;492c&#45;a14e&#45;3b2e8c9bec07</title>
<path fill="none" stroke="black" d="M97.74,-99.87C101.42,-99.87 118.36,-99.87 138.17,-99.87"/>
<polygon fill="black" stroke="black" points="138.4,-103.37 148.4,-99.87 138.4,-96.37 138.4,-103.37"/>
<text text-anchor="middle" x="123.08" y="-106.67" font-family="Helvetica,sans-Serif" font-size="14.00">Start</text>
</g>
<!-- end -->
<g id="node2" class="node">
<title>end</title>
</g>
<!-- 8cc56f2c&#45;c389&#45;4661&#45;ab04&#45;fef602528251 -->
<g id="node4" class="node">
<title>8cc56f2c&#45;c389&#45;4661&#45;ab04&#45;fef602528251</title>
<ellipse fill="white" stroke="black" cx="442" cy="-99.87" rx="59.29" ry="26.74"/>
<text text-anchor="middle" x="442" y="-103.67" font-family="Helvetica,sans-Serif" font-size="14.00">▶ Create</text>
<text text-anchor="middle" x="442" y="-88.67" font-family="Helvetica,sans-Serif" font-size="14.00">styles.css</text>
</g>
<!-- 0899ae69&#45;d63b&#45;492c&#45;a14e&#45;3b2e8c9bec07&#45;&gt;8cc56f2c&#45;c389&#45;4661&#45;ab04&#45;fef602528251 -->
<g id="edge2" class="edge">
<title>0899ae69&#45;d63b&#45;492c&#45;a14e&#45;3b2e8c9bec07&#45;&gt;8cc56f2c&#45;c389&#45;4661&#45;ab04&#45;fef602528251</title>
<path fill="none" stroke="black" d="M277.41,-99.87C309.02,-99.87 340.64,-99.87 372.26,-99.87"/>
<polygon fill="black" stroke="black" points="372.53,-103.37 382.53,-99.87 372.53,-96.37 372.53,-103.37"/>
</g>
<!-- a86fe193&#45;e714&#45;4319&#45;a4ac&#45;44b47543faba -->
<g id="node7" class="node">
<title>a86fe193&#45;e714&#45;4319&#45;a4ac&#45;44b47543faba</title>
<polygon fill="yellow" stroke="black" points="286,-36 0,-36 0,0 286,0 286,-36"/>
<text text-anchor="middle" x="143" y="-14.3" font-family="Helvetica,sans-Serif" font-size="14.00">⋯ Run GitHub Actions for `index.html`</text>
</g>
<!-- 0899ae69&#45;d63b&#45;492c&#45;a14e&#45;3b2e8c9bec07&#45;&gt;a86fe193&#45;e714&#45;4319&#45;a4ac&#45;44b47543faba -->
<g id="edge1" class="edge">
<title>0899ae69&#45;d63b&#45;492c&#45;a14e&#45;3b2e8c9bec07&#45;&gt;a86fe193&#45;e714&#45;4319&#45;a4ac&#45;44b47543faba</title>
<path fill="none" stroke="black" stroke-dasharray="5,2" d="M191.62,-74.47C183.14,-64.8 173.39,-53.68 164.86,-43.95"/>
<polygon fill="black" stroke="black" points="167.26,-41.38 158.04,-36.16 162,-45.99 167.26,-41.38"/>
</g>
<!-- 8ad2cbae&#45;a711&#45;4678&#45;8384&#45;4b124d08803d -->
<g id="node5" class="node">
<title>8ad2cbae&#45;a711&#45;4678&#45;8384&#45;4b124d08803d</title>
<ellipse fill="white" stroke="black" cx="735" cy="-99.87" rx="59.29" ry="26.74"/>
<text text-anchor="middle" x="735" y="-103.67" font-family="Helvetica,sans-Serif" font-size="14.00">▶ Create</text>
<text text-anchor="middle" x="735" y="-88.67" font-family="Helvetica,sans-Serif" font-size="14.00">main.java</text>
</g>
<!-- 8cc56f2c&#45;c389&#45;4661&#45;ab04&#45;fef602528251&#45;&gt;8ad2cbae&#45;a711&#45;4678&#45;8384&#45;4b124d08803d -->
<g id="edge4" class="edge">
<title>8cc56f2c&#45;c389&#45;4661&#45;ab04&#45;fef602528251&#45;&gt;8ad2cbae&#45;a711&#45;4678&#45;8384&#45;4b124d08803d</title>
<path fill="none" stroke="black" d="M501.52,-99.87C556.04,-99.87 610.56,-99.87 665.08,-99.87"/>
<polygon fill="black" stroke="black" points="665.26,-103.37 675.26,-99.87 665.26,-96.37 665.26,-103.37"/>
</g>
<!-- 742e6f89&#45;ff0f&#45;4941&#45;beb7&#45;155f06d1a0f7 -->
<g id="node8" class="node">
<title>742e6f89&#45;ff0f&#45;4941&#45;beb7&#45;155f06d1a0f7</title>
<polygon fill="white" stroke="black" points="579.5,-36 304.5,-36 304.5,0 579.5,0 579.5,-36"/>
<text text-anchor="middle" x="442" y="-14.3" font-family="Helvetica,sans-Serif" font-size="14.00">▶ Run GitHub Actions for `styles.css`</text>
</g>
<!-- 8cc56f2c&#45;c389&#45;4661&#45;ab04&#45;fef602528251&#45;&gt;742e6f89&#45;ff0f&#45;4941&#45;beb7&#45;155f06d1a0f7 -->
<g id="edge3" class="edge">
<title>8cc56f2c&#45;c389&#45;4661&#45;ab04&#45;fef602528251&#45;&gt;742e6f89&#45;ff0f&#45;4941&#45;beb7&#45;155f06d1a0f7</title>
<path fill="none" stroke="black" stroke-dasharray="5,2" d="M442,-72.72C442,-64.27 442,-54.89 442,-46.36"/>
<polygon fill="black" stroke="black" points="445.5,-46.15 442,-36.15 438.5,-46.15 445.5,-46.15"/>
</g>
<!-- bea3abcb&#45;1063&#45;46c4&#45;aa3c&#45;ac510df2a134 -->
<g id="node6" class="node">
<title>bea3abcb&#45;1063&#45;46c4&#45;aa3c&#45;ac510df2a134</title>
<ellipse fill="white" stroke="black" cx="968" cy="-99.87" rx="69.09" ry="26.74"/>
<text text-anchor="middle" x="968" y="-103.67" font-family="Helvetica,sans-Serif" font-size="14.00">▶ Modify</text>
<text text-anchor="middle" x="968" y="-88.67" font-family="Helvetica,sans-Serif" font-size="14.00">ReadMe.md</text>
</g>
<!-- 8ad2cbae&#45;a711&#45;4678&#45;8384&#45;4b124d08803d&#45;&gt;bea3abcb&#45;1063&#45;46c4&#45;aa3c&#45;ac510df2a134 -->
<g id="edge6" class="edge">
<title>8ad2cbae&#45;a711&#45;4678&#45;8384&#45;4b124d08803d&#45;&gt;bea3abcb&#45;1063&#45;46c4&#45;aa3c&#45;ac510df2a134</title>
<path fill="none" stroke="black" d="M794.62,-99.87C825.89,-99.87 857.16,-99.87 888.43,-99.87"/>
<polygon fill="black" stroke="black" points="888.58,-103.37 898.58,-99.87 888.58,-96.37 888.58,-103.37"/>
</g>
<!-- 74cbf9fe&#45;35ff&#45;46ef&#45;8456&#45;062bdcb1f41b -->
<g id="node9" class="node">
<title>74cbf9fe&#45;35ff&#45;46ef&#45;8456&#45;062bdcb1f41b</title>
<polygon fill="white" stroke="black" points="872.5,-36 597.5,-36 597.5,0 872.5,0 872.5,-36"/>
<text text-anchor="middle" x="735" y="-14.3" font-family="Helvetica,sans-Serif" font-size="14.00">▶ Run GitHub Actions for `main.java`</text>
</g>
<!-- 8ad2cbae&#45;a711&#45;4678&#45;8384&#45;4b124d08803d&#45;&gt;74cbf9fe&#45;35ff&#45;46ef&#45;8456&#45;062bdcb1f41b -->
<g id="edge5" class="edge">
<title>8ad2cbae&#45;a711&#45;4678&#45;8384&#45;4b124d08803d&#45;&gt;74cbf9fe&#45;35ff&#45;46ef&#45;8456&#45;062bdcb1f41b</title>
<path fill="none" stroke="black" stroke-dasharray="5,2" d="M735,-72.72C735,-64.27 735,-54.89 735,-46.36"/>
<polygon fill="black" stroke="black" points="738.5,-46.15 735,-36.15 731.5,-46.15 738.5,-46.15"/>
</g>
<!-- bea3abcb&#45;1063&#45;46c4&#45;aa3c&#45;ac510df2a134&#45;&gt;end -->
<g id="edge9" class="edge">
<title>bea3abcb&#45;1063&#45;46c4&#45;aa3c&#45;ac510df2a134&#45;&gt;end</title>
<path fill="none" stroke="black" d="M1037.45,-99.87C1055.71,-99.87 1073.31,-99.87 1084.14,-99.87"/>
<polygon fill="black" stroke="black" points="1084.29,-103.37 1094.29,-99.87 1084.29,-96.37 1084.29,-103.37"/>
<text text-anchor="middle" x="1065.9" y="-106.67" font-family="Helvetica,sans-Serif" font-size="14.00">Finish</text>
</g>
<!-- 167234d3&#45;be55&#45;4c46&#45;8b69&#45;fa9d6a3a8c7a -->
<g id="node10" class="node">
<title>167234d3&#45;be55&#45;4c46&#45;8b69&#45;fa9d6a3a8c7a</title>
<polygon fill="white" stroke="black" points="1181,-36 891,-36 891,0 1181,0 1181,-36"/>
<text text-anchor="middle" x="1036" y="-14.3" font-family="Helvetica,sans-Serif" font-size="14.00">▶ Run GitHub Actions for `ReadMe.md`</text>
</g>
<!-- bea3abcb&#45;1063&#45;46c4&#45;aa3c&#45;ac510df2a134&#45;&gt;167234d3&#45;be55&#45;4c46&#45;8b69&#45;fa9d6a3a8c7a -->
<g id="edge7" class="edge">
<title>bea3abcb&#45;1063&#45;46c4&#45;aa3c&#45;ac510df2a134&#45;&gt;167234d3&#45;be55&#45;4c46&#45;8b69&#45;fa9d6a3a8c7a</title>
<path fill="none" stroke="black" stroke-dasharray="5,2" d="M989.14,-74.04C997.31,-64.45 1006.63,-53.5 1014.8,-43.9"/>
<polygon fill="black" stroke="black" points="1017.52,-46.11 1021.34,-36.22 1012.19,-41.57 1017.52,-46.11"/>
</g>
</g>
</svg>
