<?xml version="1.0" encoding="UTF-8" standalone="no"?>
<!DOCTYPE svg PUBLIC "-//W3C//DTD SVG 1.1//EN"
 "http://www.w3.org/Graphics/SVG/1.1/DTD/svg11.dtd">
<!-- Generated by graphviz version 2.43.0 (0)
 -->
<!-- Title: %3 Pages: 1 -->
<svg width="1346pt" height="238pt"
 viewBox="0.00 0.00 1346.00 237.74" xmlns="http://www.w3.org/2000/svg" xmlns:xlink="http://www.w3.org/1999/xlink">
<g id="graph0" class="graph" transform="scale(1 1) rotate(0) translate(36 201.74)">
<title>%3</title>
<polygon fill="dimgray" stroke="transparent" points="-36,36 -36,-201.74 1310,-201.74 1310,36 -36,36"/>
<text text-anchor="middle" x="637" y="-150.54" font-family="Helvetica,sans-Serif" font-size="14.00">Sweep&#39;s Plan &amp; Progress</text>
<!-- start -->
<g id="node1" class="node">
<title>start</title>
</g>
<!-- 150e9eef&#45;2b80&#45;48fb&#45;8311&#45;705d8f268485 -->
<g id="node3" class="node">
<title>150e9eef&#45;2b80&#45;48fb&#45;8311&#45;705d8f268485</title>
<ellipse fill="#0ee832" stroke="black" cx="216" cy="-99.87" rx="82.05" ry="26.74"/>
<text text-anchor="middle" x="216" y="-103.67" font-family="Helvetica,sans-Serif" font-size="14.00">✓ Create</text>
<text text-anchor="middle" x="216" y="-88.67" font-family="Helvetica,sans-Serif" font-size="14.00">src/index.html</text>
</g>
<!-- start&#45;&gt;150e9eef&#45;2b80&#45;48fb&#45;8311&#45;705d8f268485 -->
<g id="edge8" class="edge">
<title>start&#45;&gt;150e9eef&#45;2b80&#45;48fb&#45;8311&#45;705d8f268485</title>
<path fill="none" stroke="black" d="M82.86,-99.87C86.73,-99.87 103.28,-99.87 123.46,-99.87"/>
<polygon fill="black" stroke="black" points="123.63,-103.37 133.63,-99.87 123.63,-96.37 123.63,-103.37"/>
<text text-anchor="middle" x="108.24" y="-106.67" font-family="Helvetica,sans-Serif" font-size="14.00">Start</text>
</g>
<!-- end -->
<g id="node2" class="node">
<title>end</title>
</g>
<!-- 79d15f7e&#45;4bd5&#45;40e1&#45;9cb6&#45;b43892bcaa31 -->
<g id="node4" class="node">
<title>79d15f7e&#45;4bd5&#45;40e1&#45;9cb6&#45;b43892bcaa31</title>
<ellipse fill="#0ee832" stroke="black" cx="487" cy="-99.87" rx="90.52" ry="26.74"/>
<text text-anchor="middle" x="487" y="-103.67" font-family="Helvetica,sans-Serif" font-size="14.00">✓ Create</text>
<text text-anchor="middle" x="487" y="-88.67" font-family="Helvetica,sans-Serif" font-size="14.00">src/css/style.css</text>
</g>
<!-- 150e9eef&#45;2b80&#45;48fb&#45;8311&#45;705d8f268485&#45;&gt;79d15f7e&#45;4bd5&#45;40e1&#45;9cb6&#45;b43892bcaa31 -->
<g id="edge2" class="edge">
<title>150e9eef&#45;2b80&#45;48fb&#45;8311&#45;705d8f268485&#45;&gt;79d15f7e&#45;4bd5&#45;40e1&#45;9cb6&#45;b43892bcaa31</title>
<path fill="none" stroke="black" d="M298.04,-99.87C327.31,-99.87 356.59,-99.87 385.86,-99.87"/>
<polygon fill="black" stroke="black" points="386.21,-103.37 396.21,-99.87 386.21,-96.37 386.21,-103.37"/>
</g>
<!-- 2b343f64&#45;9810&#45;4b1a&#45;813c&#45;0f92056f319a -->
<g id="node7" class="node">
<title>2b343f64&#45;9810&#45;4b1a&#45;813c&#45;0f92056f319a</title>
<polygon fill="#0ee832" stroke="black" points="308,-36 0,-36 0,0 308,0 308,-36"/>
<text text-anchor="middle" x="154" y="-14.3" font-family="Helvetica,sans-Serif" font-size="14.00">✓ Run GitHub Actions for `src/index.html`</text>
</g>
<!-- 150e9eef&#45;2b80&#45;48fb&#45;8311&#45;705d8f268485&#45;&gt;2b343f64&#45;9810&#45;4b1a&#45;813c&#45;0f92056f319a -->
<g id="edge1" class="edge">
<title>150e9eef&#45;2b80&#45;48fb&#45;8311&#45;705d8f268485&#45;&gt;2b343f64&#45;9810&#45;4b1a&#45;813c&#45;0f92056f319a</title>
<path fill="none" stroke="black" stroke-dasharray="5,2" d="M196.38,-73.6C189.1,-64.22 180.85,-53.59 173.58,-44.22"/>
<polygon fill="black" stroke="black" points="176.12,-41.79 167.22,-36.04 170.59,-46.08 176.12,-41.79"/>
</g>
<!-- e419195a&#45;0f34&#45;4fb9&#45;82fd&#45;e355f751ab9d -->
<g id="node5" class="node">
<title>e419195a&#45;0f34&#45;4fb9&#45;82fd&#45;e355f751ab9d</title>
<ellipse fill="#0ee832" stroke="black" cx="816" cy="-99.87" rx="75.82" ry="26.74"/>
<text text-anchor="middle" x="816" y="-103.67" font-family="Helvetica,sans-Serif" font-size="14.00">✓ Create</text>
<text text-anchor="middle" x="816" y="-88.67" font-family="Helvetica,sans-Serif" font-size="14.00">src/js/main.js</text>
</g>
<!-- 79d15f7e&#45;4bd5&#45;40e1&#45;9cb6&#45;b43892bcaa31&#45;&gt;e419195a&#45;0f34&#45;4fb9&#45;82fd&#45;e355f751ab9d -->
<g id="edge4" class="edge">
<title>79d15f7e&#45;4bd5&#45;40e1&#45;9cb6&#45;b43892bcaa31&#45;&gt;e419195a&#45;0f34&#45;4fb9&#45;82fd&#45;e355f751ab9d</title>
<path fill="none" stroke="black" d="M577.6,-99.87C628.38,-99.87 679.17,-99.87 729.95,-99.87"/>
<polygon fill="black" stroke="black" points="730.1,-103.37 740.1,-99.87 730.1,-96.37 730.1,-103.37"/>
</g>
<!-- 553a028b&#45;e2ec&#45;49b0&#45;9744&#45;ee2a3bc212d1 -->
<g id="node8" class="node">
<title>553a028b&#45;e2ec&#45;49b0&#45;9744&#45;ee2a3bc212d1</title>
<polygon fill="#0ee832" stroke="black" points="647.5,-36 326.5,-36 326.5,0 647.5,0 647.5,-36"/>
<text text-anchor="middle" x="487" y="-14.3" font-family="Helvetica,sans-Serif" font-size="14.00">✓ Run GitHub Actions for `src/css/style.css`</text>
</g>
<!-- 79d15f7e&#45;4bd5&#45;40e1&#45;9cb6&#45;b43892bcaa31&#45;&gt;553a028b&#45;e2ec&#45;49b0&#45;9744&#45;ee2a3bc212d1 -->
<g id="edge3" class="edge">
<title>79d15f7e&#45;4bd5&#45;40e1&#45;9cb6&#45;b43892bcaa31&#45;&gt;553a028b&#45;e2ec&#45;49b0&#45;9744&#45;ee2a3bc212d1</title>
<path fill="none" stroke="black" stroke-dasharray="5,2" d="M487,-72.72C487,-64.27 487,-54.89 487,-46.36"/>
<polygon fill="black" stroke="black" points="490.5,-46.15 487,-36.15 483.5,-46.15 490.5,-46.15"/>
</g>
<!-- b7115cfd&#45;ffaa&#45;4d9c&#45;82ef&#45;386e5401268e -->
<g id="node6" class="node">
<title>b7115cfd&#45;ffaa&#45;4d9c&#45;82ef&#45;386e5401268e</title>
<ellipse fill="white" stroke="black" cx="1063" cy="-99.87" rx="69.09" ry="26.74"/>
<text text-anchor="middle" x="1063" y="-103.67" font-family="Helvetica,sans-Serif" font-size="14.00">▶ Modify</text>
<text text-anchor="middle" x="1063" y="-88.67" font-family="Helvetica,sans-Serif" font-size="14.00">ReadMe.md</text>
</g>
<!-- e419195a&#45;0f34&#45;4fb9&#45;82fd&#45;e355f751ab9d&#45;&gt;b7115cfd&#45;ffaa&#45;4d9c&#45;82ef&#45;386e5401268e -->
<g id="edge6" class="edge">
<title>e419195a&#45;0f34&#45;4fb9&#45;82fd&#45;e355f751ab9d&#45;&gt;b7115cfd&#45;ffaa&#45;4d9c&#45;82ef&#45;386e5401268e</title>
<path fill="none" stroke="black" d="M891.74,-99.87C922.19,-99.87 952.65,-99.87 983.1,-99.87"/>
<polygon fill="black" stroke="black" points="983.43,-103.37 993.43,-99.87 983.43,-96.37 983.43,-103.37"/>
</g>
<!-- f86ae67c&#45;94a1&#45;4105&#45;a4e5&#45;c9b889de3130 -->
<g id="node9" class="node">
<title>f86ae67c&#45;94a1&#45;4105&#45;a4e5&#45;c9b889de3130</title>
<polygon fill="#0ee832" stroke="black" points="966,-36 666,-36 666,0 966,0 966,-36"/>
<text text-anchor="middle" x="816" y="-14.3" font-family="Helvetica,sans-Serif" font-size="14.00">✓ Run GitHub Actions for `src/js/main.js`</text>
</g>
<!-- e419195a&#45;0f34&#45;4fb9&#45;82fd&#45;e355f751ab9d&#45;&gt;f86ae67c&#45;94a1&#45;4105&#45;a4e5&#45;c9b889de3130 -->
<g id="edge5" class="edge">
<title>e419195a&#45;0f34&#45;4fb9&#45;82fd&#45;e355f751ab9d&#45;&gt;f86ae67c&#45;94a1&#45;4105&#45;a4e5&#45;c9b889de3130</title>
<path fill="none" stroke="black" stroke-dasharray="5,2" d="M816,-72.72C816,-64.27 816,-54.89 816,-46.36"/>
<polygon fill="black" stroke="black" points="819.5,-46.15 816,-36.15 812.5,-46.15 819.5,-46.15"/>
</g>
<!-- b7115cfd&#45;ffaa&#45;4d9c&#45;82ef&#45;386e5401268e&#45;&gt;end -->
<g id="edge9" class="edge">
<title>b7115cfd&#45;ffaa&#45;4d9c&#45;82ef&#45;386e5401268e&#45;&gt;end</title>
<path fill="none" stroke="black" d="M1132.45,-99.87C1150.71,-99.87 1168.31,-99.87 1179.14,-99.87"/>
<polygon fill="black" stroke="black" points="1179.29,-103.37 1189.29,-99.87 1179.29,-96.37 1179.29,-103.37"/>
<text text-anchor="middle" x="1160.9" y="-106.67" font-family="Helvetica,sans-Serif" font-size="14.00">Finish</text>
</g>
<!-- e70c29ec&#45;99a9&#45;4574&#45;8230&#45;6f413d8cc1c3 -->
<g id="node10" class="node">
<title>e70c29ec&#45;99a9&#45;4574&#45;8230&#45;6f413d8cc1c3</title>
<polygon fill="white" stroke="black" points="1274,-36 984,-36 984,0 1274,0 1274,-36"/>
<text text-anchor="middle" x="1129" y="-14.3" font-family="Helvetica,sans-Serif" font-size="14.00">▶ Run GitHub Actions for `ReadMe.md`</text>
</g>
<!-- b7115cfd&#45;ffaa&#45;4d9c&#45;82ef&#45;386e5401268e&#45;&gt;e70c29ec&#45;99a9&#45;4574&#45;8230&#45;6f413d8cc1c3 -->
<g id="edge7" class="edge">
<title>b7115cfd&#45;ffaa&#45;4d9c&#45;82ef&#45;386e5401268e&#45;&gt;e70c29ec&#45;99a9&#45;4574&#45;8230&#45;6f413d8cc1c3</title>
<path fill="none" stroke="black" stroke-dasharray="5,2" d="M1083.52,-74.04C1091.36,-64.54 1100.31,-53.72 1108.18,-44.19"/>
<polygon fill="black" stroke="black" points="1111.1,-46.16 1114.77,-36.22 1105.7,-41.7 1111.1,-46.16"/>
</g>
</g>
</svg>
