<?xml version="1.0" encoding="UTF-8" standalone="no"?>
<!DOCTYPE svg PUBLIC "-//W3C//DTD SVG 1.1//EN"
 "http://www.w3.org/Graphics/SVG/1.1/DTD/svg11.dtd">
<!-- Generated by graphviz version 2.43.0 (0)
 -->
<!-- Title: %3 Pages: 1 -->
<svg width="1255pt" height="238pt"
 viewBox="0.00 0.00 1255.00 237.74" xmlns="http://www.w3.org/2000/svg" xmlns:xlink="http://www.w3.org/1999/xlink">
<g id="graph0" class="graph" transform="scale(1 1) rotate(0) translate(36 201.74)">
<title>%3</title>
<polygon fill="dimgray" stroke="transparent" points="-36,36 -36,-201.74 1219,-201.74 1219,36 -36,36"/>
<text text-anchor="middle" x="591.5" y="-150.54" font-family="Helvetica,sans-Serif" font-size="14.00">Sweep&#39;s Plan &amp; Progress</text>
<!-- start -->
<g id="node1" class="node">
<title>start</title>
</g>
<!-- 0899ae69&#45;d63b&#45;492c&#45;a14e&#45;3b2e8c9bec07 -->
<g id="node3" class="node">
<title>0899ae69&#45;d63b&#45;492c&#45;a14e&#45;3b2e8c9bec07</title>
<ellipse fill="#0ee832" stroke="black" cx="212" cy="-99.87" rx="64.19" ry="26.74"/>
<text text-anchor="middle" x="212" y="-103.67" font-family="Helvetica,sans-Serif" font-size="14.00">✓ Create</text>
<text text-anchor="middle" x="212" y="-88.67" font-family="Helvetica,sans-Serif" font-size="14.00">index.html</text>
</g>
<!-- start&#45;&gt;0899ae69&#45;d63b&#45;492c&#45;a14e&#45;3b2e8c9bec07 -->
<g id="edge8" class="edge">
<title>start&#45;&gt;0899ae69&#45;d63b&#45;492c&#45;a14e&#45;3b2e8c9bec07</title>
<path fill="none" stroke="black" d="M96.74,-99.87C100.42,-99.87 117.36,-99.87 137.17,-99.87"/>
<polygon fill="black" stroke="black" points="137.4,-103.37 147.4,-99.87 137.4,-96.37 137.4,-103.37"/>
<text text-anchor="middle" x="122.08" y="-106.67" font-family="Helvetica,sans-Serif" font-size="14.00">Start</text>
</g>
<!-- end -->
<g id="node2" class="node">
<title>end</title>
</g>
<!-- 8cc56f2c&#45;c389&#45;4661&#45;ab04&#45;fef602528251 -->
<g id="node4" class="node">
<title>8cc56f2c&#45;c389&#45;4661&#45;ab04&#45;fef602528251</title>
<ellipse fill="#0ee832" stroke="black" cx="441" cy="-99.87" rx="59.29" ry="26.74"/>
<text text-anchor="middle" x="441" y="-103.67" font-family="Helvetica,sans-Serif" font-size="14.00">✓ Create</text>
<text text-anchor="middle" x="441" y="-88.67" font-family="Helvetica,sans-Serif" font-size="14.00">styles.css</text>
</g>
<!-- 0899ae69&#45;d63b&#45;492c&#45;a14e&#45;3b2e8c9bec07&#45;&gt;8cc56f2c&#45;c389&#45;4661&#45;ab04&#45;fef602528251 -->
<g id="edge2" class="edge">
<title>0899ae69&#45;d63b&#45;492c&#45;a14e&#45;3b2e8c9bec07&#45;&gt;8cc56f2c&#45;c389&#45;4661&#45;ab04&#45;fef602528251</title>
<path fill="none" stroke="black" d="M276.41,-99.87C308.02,-99.87 339.64,-99.87 371.26,-99.87"/>
<polygon fill="black" stroke="black" points="371.53,-103.37 381.53,-99.87 371.53,-96.37 371.53,-103.37"/>
</g>
<!-- a86fe193&#45;e714&#45;4319&#45;a4ac&#45;44b47543faba -->
<g id="node7" class="node">
<title>a86fe193&#45;e714&#45;4319&#45;a4ac&#45;44b47543faba</title>
<polygon fill="#0ee832" stroke="black" points="284,-36 0,-36 0,0 284,0 284,-36"/>
<text text-anchor="middle" x="142" y="-14.3" font-family="Helvetica,sans-Serif" font-size="14.00">✓ Run GitHub Actions for `index.html`</text>
</g>
<!-- 0899ae69&#45;d63b&#45;492c&#45;a14e&#45;3b2e8c9bec07&#45;&gt;a86fe193&#45;e714&#45;4319&#45;a4ac&#45;44b47543faba -->
<g id="edge1" class="edge">
<title>0899ae69&#45;d63b&#45;492c&#45;a14e&#45;3b2e8c9bec07&#45;&gt;a86fe193&#45;e714&#45;4319&#45;a4ac&#45;44b47543faba</title>
<path fill="none" stroke="black" stroke-dasharray="5,2" d="M190.62,-74.47C182.14,-64.8 172.39,-53.68 163.86,-43.95"/>
<polygon fill="black" stroke="black" points="166.26,-41.38 157.04,-36.16 161,-45.99 166.26,-41.38"/>
</g>
<!-- 8ad2cbae&#45;a711&#45;4678&#45;8384&#45;4b124d08803d -->
<g id="node5" class="node">
<title>8ad2cbae&#45;a711&#45;4678&#45;8384&#45;4b124d08803d</title>
<ellipse fill="#0ee832" stroke="black" cx="736" cy="-99.87" rx="59.29" ry="26.74"/>
<text text-anchor="middle" x="736" y="-103.67" font-family="Helvetica,sans-Serif" font-size="14.00">✓ Create</text>
<text text-anchor="middle" x="736" y="-88.67" font-family="Helvetica,sans-Serif" font-size="14.00">main.java</text>
</g>
<!-- 8cc56f2c&#45;c389&#45;4661&#45;ab04&#45;fef602528251&#45;&gt;8ad2cbae&#45;a711&#45;4678&#45;8384&#45;4b124d08803d -->
<g id="edge4" class="edge">
<title>8cc56f2c&#45;c389&#45;4661&#45;ab04&#45;fef602528251&#45;&gt;8ad2cbae&#45;a711&#45;4678&#45;8384&#45;4b124d08803d</title>
<path fill="none" stroke="black" d="M500.63,-99.87C555.74,-99.87 610.84,-99.87 665.95,-99.87"/>
<polygon fill="black" stroke="black" points="666.24,-103.37 676.24,-99.87 666.24,-96.37 666.24,-103.37"/>
</g>
<!-- 742e6f89&#45;ff0f&#45;4941&#45;beb7&#45;155f06d1a0f7 -->
<g id="node8" class="node">
<title>742e6f89&#45;ff0f&#45;4941&#45;beb7&#45;155f06d1a0f7</title>
<polygon fill="#0ee832" stroke="black" points="579.5,-36 302.5,-36 302.5,0 579.5,0 579.5,-36"/>
<text text-anchor="middle" x="441" y="-14.3" font-family="Helvetica,sans-Serif" font-size="14.00">✓ Run GitHub Actions for `styles.css`</text>
</g>
<!-- 8cc56f2c&#45;c389&#45;4661&#45;ab04&#45;fef602528251&#45;&gt;742e6f89&#45;ff0f&#45;4941&#45;beb7&#45;155f06d1a0f7 -->
<g id="edge3" class="edge">
<title>8cc56f2c&#45;c389&#45;4661&#45;ab04&#45;fef602528251&#45;&gt;742e6f89&#45;ff0f&#45;4941&#45;beb7&#45;155f06d1a0f7</title>
<path fill="none" stroke="black" stroke-dasharray="5,2" d="M441,-72.72C441,-64.27 441,-54.89 441,-46.36"/>
<polygon fill="black" stroke="black" points="444.5,-46.15 441,-36.15 437.5,-46.15 444.5,-46.15"/>
</g>
<!-- bea3abcb&#45;1063&#45;46c4&#45;aa3c&#45;ac510df2a134 -->
<g id="node6" class="node">
<title>bea3abcb&#45;1063&#45;46c4&#45;aa3c&#45;ac510df2a134</title>
<ellipse fill="white" stroke="black" cx="969" cy="-99.87" rx="69.09" ry="26.74"/>
<text text-anchor="middle" x="969" y="-103.67" font-family="Helvetica,sans-Serif" font-size="14.00">▶ Modify</text>
<text text-anchor="middle" x="969" y="-88.67" font-family="Helvetica,sans-Serif" font-size="14.00">ReadMe.md</text>
</g>
<!-- 8ad2cbae&#45;a711&#45;4678&#45;8384&#45;4b124d08803d&#45;&gt;bea3abcb&#45;1063&#45;46c4&#45;aa3c&#45;ac510df2a134 -->
<g id="edge6" class="edge">
<title>8ad2cbae&#45;a711&#45;4678&#45;8384&#45;4b124d08803d&#45;&gt;bea3abcb&#45;1063&#45;46c4&#45;aa3c&#45;ac510df2a134</title>
<path fill="none" stroke="black" d="M795.62,-99.87C826.89,-99.87 858.16,-99.87 889.43,-99.87"/>
<polygon fill="black" stroke="black" points="889.58,-103.37 899.58,-99.87 889.58,-96.37 889.58,-103.37"/>
</g>
<!-- 74cbf9fe&#45;35ff&#45;46ef&#45;8456&#45;062bdcb1f41b -->
<g id="node9" class="node">
<title>74cbf9fe&#45;35ff&#45;46ef&#45;8456&#45;062bdcb1f41b</title>
<polygon fill="#0ee832" stroke="black" points="874.5,-36 597.5,-36 597.5,0 874.5,0 874.5,-36"/>
<text text-anchor="middle" x="736" y="-14.3" font-family="Helvetica,sans-Serif" font-size="14.00">✓ Run GitHub Actions for `main.java`</text>
</g>
<!-- 8ad2cbae&#45;a711&#45;4678&#45;8384&#45;4b124d08803d&#45;&gt;74cbf9fe&#45;35ff&#45;46ef&#45;8456&#45;062bdcb1f41b -->
<g id="edge5" class="edge">
<title>8ad2cbae&#45;a711&#45;4678&#45;8384&#45;4b124d08803d&#45;&gt;74cbf9fe&#45;35ff&#45;46ef&#45;8456&#45;062bdcb1f41b</title>
<path fill="none" stroke="black" stroke-dasharray="5,2" d="M736,-72.72C736,-64.27 736,-54.89 736,-46.36"/>
<polygon fill="black" stroke="black" points="739.5,-46.15 736,-36.15 732.5,-46.15 739.5,-46.15"/>
</g>
<!-- bea3abcb&#45;1063&#45;46c4&#45;aa3c&#45;ac510df2a134&#45;&gt;end -->
<g id="edge9" class="edge">
<title>bea3abcb&#45;1063&#45;46c4&#45;aa3c&#45;ac510df2a134&#45;&gt;end</title>
<path fill="none" stroke="black" d="M1038.45,-99.87C1056.71,-99.87 1074.31,-99.87 1085.14,-99.87"/>
<polygon fill="black" stroke="black" points="1085.29,-103.37 1095.29,-99.87 1085.29,-96.37 1085.29,-103.37"/>
<text text-anchor="middle" x="1066.9" y="-106.67" font-family="Helvetica,sans-Serif" font-size="14.00">Finish</text>
</g>
<!-- 167234d3&#45;be55&#45;4c46&#45;8b69&#45;fa9d6a3a8c7a -->
<g id="node10" class="node">
<title>167234d3&#45;be55&#45;4c46&#45;8b69&#45;fa9d6a3a8c7a</title>
<polygon fill="white" stroke="black" points="1183,-36 893,-36 893,0 1183,0 1183,-36"/>
<text text-anchor="middle" x="1038" y="-14.3" font-family="Helvetica,sans-Serif" font-size="14.00">▶ Run GitHub Actions for `ReadMe.md`</text>
</g>
<!-- bea3abcb&#45;1063&#45;46c4&#45;aa3c&#45;ac510df2a134&#45;&gt;167234d3&#45;be55&#45;4c46&#45;8b69&#45;fa9d6a3a8c7a -->
<g id="edge7" class="edge">
<title>bea3abcb&#45;1063&#45;46c4&#45;aa3c&#45;ac510df2a134&#45;&gt;167234d3&#45;be55&#45;4c46&#45;8b69&#45;fa9d6a3a8c7a</title>
<path fill="none" stroke="black" stroke-dasharray="5,2" d="M990.45,-74.04C998.74,-64.45 1008.2,-53.5 1016.49,-43.9"/>
<polygon fill="black" stroke="black" points="1019.23,-46.08 1023.12,-36.22 1013.94,-41.5 1019.23,-46.08"/>
</g>
</g>
</svg>
