<?xml version="1.0" encoding="UTF-8" standalone="no"?>
<!DOCTYPE svg PUBLIC "-//W3C//DTD SVG 1.1//EN"
 "http://www.w3.org/Graphics/SVG/1.1/DTD/svg11.dtd">
<!-- Generated by graphviz version 2.43.0 (0)
 -->
<!-- Title: %3 Pages: 1 -->
<svg width="1251pt" height="238pt"
 viewBox="0.00 0.00 1251.00 237.74" xmlns="http://www.w3.org/2000/svg" xmlns:xlink="http://www.w3.org/1999/xlink">
<g id="graph0" class="graph" transform="scale(1 1) rotate(0) translate(36 201.74)">
<title>%3</title>
<polygon fill="dimgray" stroke="transparent" points="-36,36 -36,-201.74 1215,-201.74 1215,36 -36,36"/>
<text text-anchor="middle" x="589.5" y="-150.54" font-family="Helvetica,sans-Serif" font-size="14.00">Sweep&#39;s Plan &amp; Progress</text>
<!-- start -->
<g id="node1" class="node">
<title>start</title>
</g>
<!-- 0899ae69&#45;d63b&#45;492c&#45;a14e&#45;3b2e8c9bec07 -->
<g id="node3" class="node">
<title>0899ae69&#45;d63b&#45;492c&#45;a14e&#45;3b2e8c9bec07</title>
<ellipse fill="#0ee832" stroke="black" cx="211" cy="-99.87" rx="64.19" ry="26.74"/>
<text text-anchor="middle" x="211" y="-103.67" font-family="Helvetica,sans-Serif" font-size="14.00">✓ Create</text>
<text text-anchor="middle" x="211" y="-88.67" font-family="Helvetica,sans-Serif" font-size="14.00">index.html</text>
</g>
<!-- start&#45;&gt;0899ae69&#45;d63b&#45;492c&#45;a14e&#45;3b2e8c9bec07 -->
<g id="edge8" class="edge">
<title>start&#45;&gt;0899ae69&#45;d63b&#45;492c&#45;a14e&#45;3b2e8c9bec07</title>
<path fill="none" stroke="black" d="M95.74,-99.87C99.42,-99.87 116.36,-99.87 136.17,-99.87"/>
<polygon fill="black" stroke="black" points="136.4,-103.37 146.4,-99.87 136.4,-96.37 136.4,-103.37"/>
<text text-anchor="middle" x="121.08" y="-106.67" font-family="Helvetica,sans-Serif" font-size="14.00">Start</text>
</g>
<!-- end -->
<g id="node2" class="node">
<title>end</title>
</g>
<!-- 8cc56f2c&#45;c389&#45;4661&#45;ab04&#45;fef602528251 -->
<g id="node4" class="node">
<title>8cc56f2c&#45;c389&#45;4661&#45;ab04&#45;fef602528251</title>
<ellipse fill="white" stroke="black" cx="440" cy="-99.87" rx="59.29" ry="26.74"/>
<text text-anchor="middle" x="440" y="-103.67" font-family="Helvetica,sans-Serif" font-size="14.00">▶ Create</text>
<text text-anchor="middle" x="440" y="-88.67" font-family="Helvetica,sans-Serif" font-size="14.00">styles.css</text>
</g>
<!-- 0899ae69&#45;d63b&#45;492c&#45;a14e&#45;3b2e8c9bec07&#45;&gt;8cc56f2c&#45;c389&#45;4661&#45;ab04&#45;fef602528251 -->
<g id="edge2" class="edge">
<title>0899ae69&#45;d63b&#45;492c&#45;a14e&#45;3b2e8c9bec07&#45;&gt;8cc56f2c&#45;c389&#45;4661&#45;ab04&#45;fef602528251</title>
<path fill="none" stroke="black" d="M275.41,-99.87C307.02,-99.87 338.64,-99.87 370.26,-99.87"/>
<polygon fill="black" stroke="black" points="370.53,-103.37 380.53,-99.87 370.53,-96.37 370.53,-103.37"/>
</g>
<!-- a86fe193&#45;e714&#45;4319&#45;a4ac&#45;44b47543faba -->
<g id="node7" class="node">
<title>a86fe193&#45;e714&#45;4319&#45;a4ac&#45;44b47543faba</title>
<polygon fill="#0ee832" stroke="black" points="284,-36 0,-36 0,0 284,0 284,-36"/>
<text text-anchor="middle" x="142" y="-14.3" font-family="Helvetica,sans-Serif" font-size="14.00">✓ Run GitHub Actions for `index.html`</text>
</g>
<!-- 0899ae69&#45;d63b&#45;492c&#45;a14e&#45;3b2e8c9bec07&#45;&gt;a86fe193&#45;e714&#45;4319&#45;a4ac&#45;44b47543faba -->
<g id="edge1" class="edge">
<title>0899ae69&#45;d63b&#45;492c&#45;a14e&#45;3b2e8c9bec07&#45;&gt;a86fe193&#45;e714&#45;4319&#45;a4ac&#45;44b47543faba</title>
<path fill="none" stroke="black" stroke-dasharray="5,2" d="M189.92,-74.47C181.56,-64.8 171.96,-53.68 163.55,-43.95"/>
<polygon fill="black" stroke="black" points="166.01,-41.44 156.83,-36.16 160.71,-46.02 166.01,-41.44"/>
</g>
<!-- 8ad2cbae&#45;a711&#45;4678&#45;8384&#45;4b124d08803d -->
<g id="node5" class="node">
<title>8ad2cbae&#45;a711&#45;4678&#45;8384&#45;4b124d08803d</title>
<ellipse fill="white" stroke="black" cx="733" cy="-99.87" rx="59.29" ry="26.74"/>
<text text-anchor="middle" x="733" y="-103.67" font-family="Helvetica,sans-Serif" font-size="14.00">▶ Create</text>
<text text-anchor="middle" x="733" y="-88.67" font-family="Helvetica,sans-Serif" font-size="14.00">main.java</text>
</g>
<!-- 8cc56f2c&#45;c389&#45;4661&#45;ab04&#45;fef602528251&#45;&gt;8ad2cbae&#45;a711&#45;4678&#45;8384&#45;4b124d08803d -->
<g id="edge4" class="edge">
<title>8cc56f2c&#45;c389&#45;4661&#45;ab04&#45;fef602528251&#45;&gt;8ad2cbae&#45;a711&#45;4678&#45;8384&#45;4b124d08803d</title>
<path fill="none" stroke="black" d="M499.52,-99.87C554.04,-99.87 608.56,-99.87 663.08,-99.87"/>
<polygon fill="black" stroke="black" points="663.26,-103.37 673.26,-99.87 663.26,-96.37 663.26,-103.37"/>
</g>
<!-- 742e6f89&#45;ff0f&#45;4941&#45;beb7&#45;155f06d1a0f7 -->
<g id="node8" class="node">
<title>742e6f89&#45;ff0f&#45;4941&#45;beb7&#45;155f06d1a0f7</title>
<polygon fill="white" stroke="black" points="577.5,-36 302.5,-36 302.5,0 577.5,0 577.5,-36"/>
<text text-anchor="middle" x="440" y="-14.3" font-family="Helvetica,sans-Serif" font-size="14.00">▶ Run GitHub Actions for `styles.css`</text>
</g>
<!-- 8cc56f2c&#45;c389&#45;4661&#45;ab04&#45;fef602528251&#45;&gt;742e6f89&#45;ff0f&#45;4941&#45;beb7&#45;155f06d1a0f7 -->
<g id="edge3" class="edge">
<title>8cc56f2c&#45;c389&#45;4661&#45;ab04&#45;fef602528251&#45;&gt;742e6f89&#45;ff0f&#45;4941&#45;beb7&#45;155f06d1a0f7</title>
<path fill="none" stroke="black" stroke-dasharray="5,2" d="M440,-72.72C440,-64.27 440,-54.89 440,-46.36"/>
<polygon fill="black" stroke="black" points="443.5,-46.15 440,-36.15 436.5,-46.15 443.5,-46.15"/>
</g>
<!-- bea3abcb&#45;1063&#45;46c4&#45;aa3c&#45;ac510df2a134 -->
<g id="node6" class="node">
<title>bea3abcb&#45;1063&#45;46c4&#45;aa3c&#45;ac510df2a134</title>
<ellipse fill="white" stroke="black" cx="966" cy="-99.87" rx="69.09" ry="26.74"/>
<text text-anchor="middle" x="966" y="-103.67" font-family="Helvetica,sans-Serif" font-size="14.00">▶ Modify</text>
<text text-anchor="middle" x="966" y="-88.67" font-family="Helvetica,sans-Serif" font-size="14.00">ReadMe.md</text>
</g>
<!-- 8ad2cbae&#45;a711&#45;4678&#45;8384&#45;4b124d08803d&#45;&gt;bea3abcb&#45;1063&#45;46c4&#45;aa3c&#45;ac510df2a134 -->
<g id="edge6" class="edge">
<title>8ad2cbae&#45;a711&#45;4678&#45;8384&#45;4b124d08803d&#45;&gt;bea3abcb&#45;1063&#45;46c4&#45;aa3c&#45;ac510df2a134</title>
<path fill="none" stroke="black" d="M792.62,-99.87C823.89,-99.87 855.16,-99.87 886.43,-99.87"/>
<polygon fill="black" stroke="black" points="886.58,-103.37 896.58,-99.87 886.58,-96.37 886.58,-103.37"/>
</g>
<!-- 74cbf9fe&#45;35ff&#45;46ef&#45;8456&#45;062bdcb1f41b -->
<g id="node9" class="node">
<title>74cbf9fe&#45;35ff&#45;46ef&#45;8456&#45;062bdcb1f41b</title>
<polygon fill="white" stroke="black" points="870.5,-36 595.5,-36 595.5,0 870.5,0 870.5,-36"/>
<text text-anchor="middle" x="733" y="-14.3" font-family="Helvetica,sans-Serif" font-size="14.00">▶ Run GitHub Actions for `main.java`</text>
</g>
<!-- 8ad2cbae&#45;a711&#45;4678&#45;8384&#45;4b124d08803d&#45;&gt;74cbf9fe&#45;35ff&#45;46ef&#45;8456&#45;062bdcb1f41b -->
<g id="edge5" class="edge">
<title>8ad2cbae&#45;a711&#45;4678&#45;8384&#45;4b124d08803d&#45;&gt;74cbf9fe&#45;35ff&#45;46ef&#45;8456&#45;062bdcb1f41b</title>
<path fill="none" stroke="black" stroke-dasharray="5,2" d="M733,-72.72C733,-64.27 733,-54.89 733,-46.36"/>
<polygon fill="black" stroke="black" points="736.5,-46.15 733,-36.15 729.5,-46.15 736.5,-46.15"/>
</g>
<!-- bea3abcb&#45;1063&#45;46c4&#45;aa3c&#45;ac510df2a134&#45;&gt;end -->
<g id="edge9" class="edge">
<title>bea3abcb&#45;1063&#45;46c4&#45;aa3c&#45;ac510df2a134&#45;&gt;end</title>
<path fill="none" stroke="black" d="M1035.45,-99.87C1053.71,-99.87 1071.31,-99.87 1082.14,-99.87"/>
<polygon fill="black" stroke="black" points="1082.29,-103.37 1092.29,-99.87 1082.29,-96.37 1082.29,-103.37"/>
<text text-anchor="middle" x="1063.9" y="-106.67" font-family="Helvetica,sans-Serif" font-size="14.00">Finish</text>
</g>
<!-- 167234d3&#45;be55&#45;4c46&#45;8b69&#45;fa9d6a3a8c7a -->
<g id="node10" class="node">
<title>167234d3&#45;be55&#45;4c46&#45;8b69&#45;fa9d6a3a8c7a</title>
<polygon fill="white" stroke="black" points="1179,-36 889,-36 889,0 1179,0 1179,-36"/>
<text text-anchor="middle" x="1034" y="-14.3" font-family="Helvetica,sans-Serif" font-size="14.00">▶ Run GitHub Actions for `ReadMe.md`</text>
</g>
<!-- bea3abcb&#45;1063&#45;46c4&#45;aa3c&#45;ac510df2a134&#45;&gt;167234d3&#45;be55&#45;4c46&#45;8b69&#45;fa9d6a3a8c7a -->
<g id="edge7" class="edge">
<title>bea3abcb&#45;1063&#45;46c4&#45;aa3c&#45;ac510df2a134&#45;&gt;167234d3&#45;be55&#45;4c46&#45;8b69&#45;fa9d6a3a8c7a</title>
<path fill="none" stroke="black" stroke-dasharray="5,2" d="M987.14,-74.04C995.31,-64.45 1004.63,-53.5 1012.8,-43.9"/>
<polygon fill="black" stroke="black" points="1015.52,-46.11 1019.34,-36.22 1010.19,-41.57 1015.52,-46.11"/>
</g>
</g>
</svg>
